<svg xmlns="http://www.w3.org/2000/svg" viewBox="0 0 720 630" role="img" aria-labelledby="title desc"> 
  <title id="title">Una misma fracción conectada con cinco significados</title>
  <desc id="desc">La expresión tres cuartos ocupa el centro y se conecta con parte todo, cociente, medida, razón y operador.</desc>
  <defs>
    <linearGradient id="bg" x1="0" y1="0" x2="1" y2="1">
      <stop offset="0" stop-color="#eef5ff"/>
      <stop offset="1" stop-color="#f8fbff"/>
    </linearGradient>
    <filter id="shadow" x="-20%" y="-20%" width="140%" height="140%">
      <feDropShadow dx="0" dy="10" stdDeviation="12" flood-color="#123a72" flood-opacity=".16"/>
    </filter>
  </defs>
  <rect width="720" height="630" rx="38" fill="url(#bg)"/>

  <rect x="200" y="20" width="315" height="52" rx="26" fill="#ffffff" stroke="#bfd1ef"/>
  <text x="360" y="53" text-anchor="middle" font-family="Arial, sans-serif" font-size="20" font-weight="700" fill="#173f87">¿Qué problema le da sentido?</text>
  
  <path d="M360 280 L155 130 M360 280 L560 125 M360 280 L620 300 M360 280 L545 455 M360 280 L160 440" stroke="#9ab8e8" stroke-width="5" stroke-linecap="round" stroke-dasharray="8 12"/>
  <g filter="url(#shadow)">
    <circle cx="360" cy="280" r="104" fill="#173f87"/>
    <text x="360" y="250" text-anchor="middle" font-family="Arial, sans-serif" font-size="28" fill="#dfeaff">una escritura</text>
    <text x="360" y="326" text-anchor="middle" font-family="Georgia, serif" font-size="86" font-weight="700" fill="#ffffff">¾</text>
  </g>
  <g font-family="Arial, sans-serif" text-anchor="middle" font-weight="700">
    <g transform="translate(175 130)">
      <circle r="72" fill="#ffffff" stroke="#2b65c8" stroke-width="4"/>
      <path d="M-30 -30h60v60h-60z" fill="#dce9ff"/>
      <path d="M-30 -30h42v60h-42z" fill="#2b65c8" opacity=".78"/>
      <text y="98" font-size="20" fill="#173f87">parte-todo</text>
    </g>
    <g transform="translate(540 130)">
      <circle r="72" fill="#ffffff" stroke="#2b65c8" stroke-width="4"/>
      <circle cx="0" cy="-25" r="16" fill="#2b65c8"/>
      <circle cx="0" cy="25" r="16" fill="#2b65c8"/>
      <path d="M-45 0 h 90" stroke="#86a8de" stroke-width="8" stroke-linecap="round"/>
      <text y="98" font-size="20" fill="#173f87">cociente</text>
    </g>
    <g transform="translate(620 400)">
      <circle r="72" fill="#ffffff" stroke="#2b65c8" stroke-width="4"/>
      <path d="M-42 18h84M-36 18v-14M0 18v-14M36 18v-14" stroke="#2b65c8" stroke-width="5"/>
      <circle cx="27" cy="18" r="9" fill="#f08a5d"/>
      <text y="98" font-size="20" fill="#173f87">medida</text>
    </g>
    <g transform="translate(360 520)">
      <circle r="72" fill="#ffffff" stroke="#2b65c8" stroke-width="4"/>
      <g fill="#2b65c8"><circle cx="-30" cy="-10" r="9"/>
        <circle cx="-5" cy="-10" r="9"/>
        <circle cx="20" cy="-10" r="9"/>
      </g>
      <g fill="#f08a5d">
        <circle cx="-30" cy="20" r="9"/>
        <circle cx="-5" cy="20" r="9"/>
        <circle cx="20" cy="20" r="9"/>
        <circle cx="45" cy="20" r="9"/>
      </g>
      <text y="98" font-size="20" fill="#173f87">razón</text>
    </g>
    <g transform="translate(140 400)">
      <circle r="72" fill="#ffffff" stroke="#2b65c8" stroke-width="4"/>
      <rect x="-60" y="-22" width="42" height="44" rx="8" fill="#86a8de"/>
      <path d="M15 -22 h42 v 44 H15z" fill="#2b65c8"/>
      <path d="M-9 0h23" stroke="#f08a5d" stroke-width="7" stroke-linecap="round"/>
      <path d="M8 -10l12 10L8 10" fill="none" stroke="#f08a5d" stroke-width="5" stroke-linecap="round" stroke-linejoin="round"/>
      <text y="98" font-size="20" fill="#173f87">operador</text>
    </g>
  </g>

</svg>


